<svg width="36" height="36" viewBox="0 0 36 36" fill="none" xmlns="http://www.w3.org/2000/svg">
<path fill-rule="evenodd" clip-rule="evenodd" d="M4.7625 10.7752C4.22316 11.12 3.77841 11.5995 3.47009 12.1685C3.16177 12.7375 3 13.3774 3 14.028V29.1642C3 30.1815 3.39509 31.1572 4.09835 31.8765C4.80161 32.5959 5.75544 33 6.75 33H29.25C30.2446 33 31.1984 32.5959 31.9016 31.8765C32.6049 31.1572 33 30.1815 33 29.1642V14.028C33 13.3774 32.8382 12.7375 32.5299 12.1685C32.2216 11.5995 31.7768 11.12 31.2375 10.7752L19.9875 3.58305C19.3915 3.20203 18.7028 3 18 3C17.2972 3 16.6085 3.20203 16.0125 3.58305L4.7625 10.7752ZM9.66562 15.4223C9.46076 15.2825 9.23099 15.1854 8.98943 15.1365C8.74786 15.0875 8.49924 15.0877 8.25775 15.137C8.01626 15.1864 7.78663 15.2839 7.58198 15.424C7.37733 15.5641 7.20166 15.744 7.065 15.9536C6.92834 16.1631 6.83337 16.3982 6.78552 16.6453C6.73766 16.8924 6.73785 17.1467 6.78608 17.3937C6.88348 17.8926 7.17064 18.3314 7.58438 18.6137L16.9594 25.0061C17.2675 25.2164 17.6296 25.3286 18 25.3286C18.3704 25.3286 18.7325 25.2164 19.0406 25.0061L28.4156 18.6137C28.8294 18.3314 29.1165 17.8926 29.2139 17.3937C29.3113 16.8948 29.211 16.3768 28.935 15.9536C28.659 15.5304 28.23 15.2367 27.7423 15.137C27.2545 15.0374 26.7481 15.14 26.3344 15.4223L18 21.1051L9.66562 15.4223Z" fill="white"/>
</svg>
