<svg xmlns="http://www.w3.org/2000/svg" width="199.013" height="200.281" viewBox="0 0 157 158">
  <defs>
    <style>
      .cls-1 {
        fill: #e5e5e5;
        fill-rule: evenodd;
      }
    </style>
  </defs>
  <path id="Color_Fill_1" data-name="Color Fill 1" class="cls-1" d="M156,23c-5.474-.994-11.656-3.852-18-4-6.5-.152-16.68,11.651-17,19l3,1c1.549,1.049,4.085,1.031,7,1,1.718-1.684,3.97-1.476,6-3,4.444-3.338,4.722-10.3,11-12,0.092,7.825,2.947,9.464,4,16-7.15-.225-10.222,5.869-17,8-5.131,1.613-8.17-1.365-13-2q-0.5,18-1,36c-1.8,7.164-5.611,10.843-6,20,2.739,0.245,5.314.722,7,2,4.982,1.925,2.012,3.592,5,7,4.774,5.445,15.173,5.4,19,12,5.354,9.234,9.473,24.759,12,36H3c0.439-7.745,2.835-17.016,6-23,0.826-1.561,3.378-3.37,4-5l1-8c2.276-4.025,7.954-4.271,10-9-3.338-2.378-4.515-7.863,0-10,3.943-2.395,9.55.969,13-1a51.722,51.722,0,0,1-10-4l1-3c3.1-1.224,2.261-.375,3-4-5.585-5.753-7.427-14.133-11-22C14.018,57.828,2.6,44.74,1,28c4.045-1.046,5.024-2.517,10-3L29,64c4.115,7.918,9.594,15.443,12,25h1V81c-3.824-5.763-4.993-25.569-3-34,6.255-26.466,5.666-30.325,32-37,3.483-.883,8.761-3.158,14-2,8.6,1.9,17.594,3.642,24,8,4.063,2.764,5.44,8.667,10,11,4.35-16.792,20.127-20.828,37-25V7C153.549,10.631,155.415,19.027,156,23Z" transform="translate(-1 -2)"/>
</svg>
